<svg width="16" height="16" viewBox="0 0 16 16" fill="none" xmlns="http://www.w3.org/2000/svg">
<g clip-path="url(#clip0_4364_21451)">
<path d="M2.02212 6.66658L13.9782 6.66659C14.6583 6.66659 14.9253 5.76564 14.3595 5.38031L8.76271 1.56909C8.30095 1.25464 7.69938 1.25464 7.23761 1.56909L1.64084 5.38031C1.07499 5.76564 1.34204 6.66658 2.02212 6.66658Z" stroke="#373435"/>
<rect x="2.6665" y="6.66675" width="3.33333" height="5.33333" stroke="#373435"/>
<rect x="10" y="6.66675" width="3.33333" height="5.33333" stroke="#373435"/>
<path d="M12.7151 12C13.0939 12 13.4402 12.214 13.6096 12.5528L13.9429 13.2195C14.2753 13.8844 13.7919 14.6667 13.0485 14.6667L2.9512 14.6667C2.20782 14.6667 1.72433 13.8844 2.05678 13.2195L2.39011 12.5528C2.5595 12.214 2.90577 12 3.28454 12L12.7151 12Z" stroke="#373435"/>
</g>
<defs>
<clipPath id="clip0_4364_21451">
<rect width="16" height="16" fill="white"/>
</clipPath>
</defs>
</svg>
