<svg width="40" height="40" viewBox="0 0 40 40" fill="none" xmlns="http://www.w3.org/2000/svg">
<path d="M28.8529 29.9163H11.1445C8.79286 29.9163 6.89453 28.018 6.89453 25.6663V14.333C6.89453 11.9813 8.79286 10.083 11.1445 10.083H28.8529C31.2045 10.083 33.1029 11.9813 33.1029 14.333V25.6663C33.1029 28.018 31.2045 29.9163 28.8529 29.9163Z" stroke="#96989A" stroke-width="1.5" stroke-linecap="round" stroke-linejoin="round"/>
<path d="M20.0002 23.6401C22.011 23.6401 23.6411 22.01 23.6411 19.9992C23.6411 17.9885 22.011 16.3584 20.0002 16.3584C17.9894 16.3584 16.3594 17.9885 16.3594 19.9992C16.3594 22.01 17.9894 23.6401 20.0002 23.6401Z" stroke="#96989A" stroke-width="1.5" stroke-linecap="round" stroke-linejoin="round"/>
<path d="M11.2717 21.4593C12.0775 21.4593 12.7308 20.8061 12.7308 20.0002C12.7308 19.1943 12.0775 18.541 11.2717 18.541C10.4658 18.541 9.8125 19.1943 9.8125 20.0002C9.8125 20.8061 10.4658 21.4593 11.2717 21.4593Z" fill="#96989A"/>
<path d="M28.6974 21.4593C29.5033 21.4593 30.1566 20.8061 30.1566 20.0002C30.1566 19.1943 29.5033 18.541 28.6974 18.541C27.8916 18.541 27.2383 19.1943 27.2383 20.0002C27.2383 20.8061 27.8916 21.4593 28.6974 21.4593Z" fill="#96989A"/>
</svg>
