<svg width="40" height="40" viewBox="0 0 40 40" fill="none" xmlns="http://www.w3.org/2000/svg">
<path d="M28 24.5H19V12.5H28M28 24.5C29.6569 24.5 31 23.1569 31 21.5V15.5C31 13.8431 29.6569 12.5 28 12.5M28 24.5V32C28 33.6569 26.6569 35 25 35H13C11.3431 35 10 33.6569 10 32V8C10 6.34315 11.3431 5 13 5H25C26.6569 5 28 6.34315 28 8V12.5" stroke="#96989A" stroke-width="1.5" stroke-linejoin="round"/>
<path d="M20.5 30.5C20.5 31.3284 19.8284 32 19 32C18.1716 32 17.5 31.3284 17.5 30.5C17.5 29.6716 18.1716 29 19 29C19.8284 29 20.5 29.6716 20.5 30.5Z" fill="#96989A"/>
<path d="M31 17L19 17" stroke="#96989A" stroke-width="1.5" stroke-linecap="round" stroke-linejoin="round"/>
</svg>
