<svg width="16" height="16" viewBox="0 0 16 16" fill="none" xmlns="http://www.w3.org/2000/svg">
<path d="M11.4268 1.83325V13.0799C11.4268 13.4333 11.2935 13.7533 11.0802 13.9999L10.3068 12.9199C10.1135 12.6466 9.72015 12.6399 9.51349 12.9066L8.6935 13.9733C8.4935 14.2333 8.10682 14.2333 7.90682 13.9733L7.08016 12.8866C6.88016 12.6266 6.4935 12.6266 6.2935 12.8866L5.46016 13.9733C5.26016 14.2333 4.8735 14.2333 4.6735 13.9733L3.84017 12.8866C3.64017 12.6266 3.26016 12.6266 3.06016 12.8866L2.1935 14.0199C1.9735 13.7666 1.8335 13.4399 1.8335 13.0799V3.20659C1.8335 2.44659 2.44683 1.83325 3.20683 1.83325H11.4268Z" stroke="#373435" stroke-linecap="round" stroke-linejoin="round"/>
<path d="M11.4268 3.20666V7.99999H12.8001C13.5601 7.99999 14.1734 7.38666 14.1734 6.62666V3.19999C14.1734 2.43999 13.5601 1.82666 12.8001 1.82666" stroke="#373435" stroke-linecap="round" stroke-linejoin="round"/>
<path d="M3.88672 4.60669H9.37339" stroke="#373435" stroke-linecap="round" stroke-linejoin="round"/>
<path d="M3.88672 7.31323H9.37339" stroke="#373435" stroke-linecap="round" stroke-linejoin="round"/>
<path d="M3.88672 10.0532H9.37339" stroke="#373435" stroke-linecap="round" stroke-linejoin="round"/>
<path d="M8 1.83325H12.7933" stroke="#373435" stroke-linecap="round" stroke-linejoin="round"/>
</svg>
