<svg width="16" height="16" viewBox="0 0 16 16" fill="none" xmlns="http://www.w3.org/2000/svg">
<path d="M2.6665 12C1.44722 12.2745 0.666504 12.6962 0.666504 13.1691C0.666504 13.9962 3.05432 14.6667 5.99984 14.6667C8.94536 14.6667 11.3332 13.9962 11.3332 13.1691C11.3332 12.6962 10.5525 12.2745 9.33317 12" stroke="#373435" strokeLinecap="round"/>
<path d="M7.66634 5.99992C7.66634 6.92039 6.92015 7.66659 5.99967 7.66659C5.0792 7.66659 4.33301 6.92039 4.33301 5.99992C4.33301 5.07944 5.0792 4.33325 5.99967 4.33325C6.92015 4.33325 7.66634 5.07944 7.66634 5.99992Z" stroke="#373435"/>
<path d="M6.83794 11.6623C6.61309 11.8789 6.31255 11.9999 5.99978 11.9999C5.687 11.9999 5.38646 11.8789 5.16161 11.6623C3.10254 9.66711 0.343134 7.43828 1.68881 4.20241C2.41641 2.4528 4.16297 1.33325 5.99978 1.33325C7.83658 1.33325 9.58314 2.4528 10.3107 4.20241C11.6547 7.4342 8.90209 9.67398 6.83794 11.6623Z" stroke="#373435"/>
</svg>
