<svg width="40" height="40" viewBox="0 0 40 40" fill="none" xmlns="http://www.w3.org/2000/svg">
<path d="M21.5039 10.1738H26.8372H21.5039Z" stroke="#96989A" stroke-width="1.5" stroke-linecap="round" stroke-linejoin="round"/>
<path d="M22.3928 10.1738C22.7395 10.1738 23.0861 10.236 23.415 10.3516C23.735 10.4672 24.0283 10.6449 24.2772 10.8672C24.5261 11.0894 24.7217 11.3472 24.855 11.6405C24.9884 11.9249 25.0595 12.236 25.0595 12.5472C25.0595 12.8583 24.9884 13.1694 24.855 13.4538C24.7217 13.7383 24.5261 14.0049 24.2772 14.2272C24.0283 14.4494 23.735 14.6183 23.415 14.7427C23.095 14.8583 22.7484 14.9205 22.3928 14.9205H21.5039L24.1706 17.2938" stroke="#96989A" stroke-width="1.5" stroke-linecap="round" stroke-linejoin="round"/>
<path d="M21.5039 12.5381H26.8372H21.5039Z" stroke="#96989A" stroke-width="1.5" stroke-linecap="round" stroke-linejoin="round"/>
<path d="M32 13C32 14.0489 31.7956 15.0889 31.3867 16.0578C30.9867 17.0267 30.3911 17.9067 29.6533 18.6533C28.9067 19.4 28.0267 19.9867 27.0578 20.3867C26.0889 20.7867 25.0489 21 24 21C22.9511 21 21.9111 20.7956 20.9422 20.3867C19.9733 19.9778 19.0933 19.3911 18.3467 18.6533C17.6 17.9067 17.0133 17.0267 16.6133 16.0578C16.2133 15.0889 16 14.0489 16 13C16 10.8756 16.8444 8.84 18.3467 7.34667C19.8489 5.84444 21.8844 5 24 5C26.1244 5 28.16 5.84444 29.6533 7.34667C31.1556 8.84 32 10.8756 32 13Z" stroke="#96989A" stroke-width="1.5" stroke-linecap="round" stroke-linejoin="round"/>
<path d="M23.8471 35L12.8017 31.8216V33.678H7V22H16.2436L25.013 25.1839C25.5318 25.3785 25.9786 25.7283 26.3533 26.2333C26.728 26.7382 26.9153 27.3836 26.9153 28.1695H31.2665C32.1405 28.1695 32.8146 28.4725 33.2888 29.0784C33.7629 29.6843 34 30.483 34 31.4746V31.8602L23.8471 35ZM8.45038 32.2458H11.3512V23.4322H8.45038V32.2458ZM23.7746 33.4796L32.4603 30.8301C32.4436 30.4573 32.3269 30.1594 32.1103 29.9363C31.8936 29.7132 31.6124 29.6017 31.2665 29.6017H24.4719C23.8155 29.6017 23.1665 29.5585 22.525 29.4722C21.8835 29.3859 21.2959 29.251 20.7622 29.0674L17.9534 28.153L18.4806 26.7538L21.2141 27.6847C21.7049 27.8647 22.2591 27.9905 22.8764 28.0621C23.4938 28.1337 24.3566 28.1695 25.4649 28.1695C25.4649 27.7233 25.3817 27.3625 25.2152 27.0871C25.0488 26.8116 24.8103 26.6198 24.4998 26.5114L16.0149 23.4322H12.8017V30.3178L23.7746 33.4796Z" fill="#96989A"/>
</svg>
