<svg width="16" height="16" viewBox="0 0 16 16" fill="none" xmlns="http://www.w3.org/2000/svg">
<path d="M12.2007 12.6187L12.6144 12.3737C13.4718 11.8659 14 10.9275 14 9.91197V6.08787C14 5.07232 13.4718 4.13391 12.6144 3.62613L9.38564 1.71408C8.5282 1.20631 7.4718 1.20631 6.61436 1.71408L3.38564 3.62613C2.5282 4.13391 2 5.07232 2 6.08787V9.91197C2 10.9275 2.5282 11.8659 3.38564 12.3737L3.79931 12.6187M12.2007 12.6187L9.38564 14.2858C8.5282 14.7935 7.4718 14.7935 6.61436 14.2858L3.79931 12.6187M12.2007 12.6187C11.3621 11.132 9.79491 10.1319 7.99999 10.1319C6.20508 10.1319 4.63791 11.132 3.79931 12.6187" stroke="#373435" strokeLinejoin="round"/>
<circle cx="2" cy="2" r="2" transform="matrix(1 0 0 -1 6 8)" stroke="#373435" strokeLinejoin="round"/>
</svg>
