<svg width="16" height="16" viewBox="0 0 16 16" fill="none" xmlns="http://www.w3.org/2000/svg">
<path d="M13.3332 12.0001H9.33325M13.3332 12.0001C14.0696 12.0001 14.6666 12.597 14.6666 13.3334C14.6666 14.0698 14.0696 14.6667 13.3332 14.6667H9.33325C8.59687 14.6667 7.99991 14.0698 7.99991 13.3334C7.99991 12.597 8.59687 12.0001 9.33325 12.0001M13.3332 12.0001C14.0696 12.0001 14.6666 11.4031 14.6666 10.6667C14.6666 9.93037 14.0696 9.33341 13.3332 9.33341H12.8888M9.33325 12.0001C8.59687 12.0001 7.99991 11.4031 7.99991 10.6667C7.99991 9.93037 8.59687 9.33341 9.33325 9.33341H12.8888M9.11688 14.6667H6.88295C4.15272 14.6667 2.22484 11.992 3.08822 9.40184L3.75488 7.40183C4.29934 5.76847 5.82789 4.66675 7.54962 4.66675H8.45021C10.1719 4.66675 11.7005 5.76847 12.2449 7.40184L12.8888 9.33341" stroke="#373435" stroke-linejoin="round"/>
<path d="M9.39076 4.66659L6.60957 4.66658L5.67551 3.59522C4.75989 2.545 5.82806 0.975236 7.16488 1.40648L7.78339 1.60601C7.92421 1.65144 8.07611 1.65144 8.21694 1.60601L8.83545 1.40648C10.1723 0.975236 11.2404 2.545 10.3248 3.59522L9.39076 4.66659Z" stroke="#373435" stroke-linejoin="round"/>
</svg>
