<svg width="16" height="13" viewBox="0 0 16 13" fill="none" xmlns="http://www.w3.org/2000/svg">
<path d="M12.3366 11.6667H12.6308C13.3207 11.6667 13.8694 11.3523 14.3621 10.9128C15.6138 9.79611 12.6715 8.6665 11.667 8.6665" stroke="#373435" stroke-linecap="round" stroke-linejoin="round"/>
<path d="M10 2.3791C10.1514 2.34907 10.3086 2.33325 10.4698 2.33325C11.6831 2.33325 12.6667 3.22868 12.6667 4.33325C12.6667 5.43782 11.6831 6.33325 10.4698 6.33325C10.3086 6.33325 10.1514 6.31743 10 6.28741" stroke="#373435" stroke-linecap="round"/>
<path d="M3.18853 9.07404C2.45495 9.49525 0.531537 10.3553 1.70302 11.4315C2.27529 11.9573 2.91264 12.3333 3.71395 12.3333H8.28638C9.08769 12.3333 9.72504 11.9573 10.2973 11.4315C11.4688 10.3553 9.54537 9.49525 8.81179 9.07404C7.09155 8.08632 4.90878 8.08632 3.18853 9.07404Z" stroke="#373435" stroke-linecap="round" stroke-linejoin="round"/>
<path d="M8.66683 3.66667C8.66683 5.13943 7.47292 6.33333 6.00016 6.33333C4.5274 6.33333 3.3335 5.13943 3.3335 3.66667C3.3335 2.19391 4.5274 1 6.00016 1C7.47292 1 8.66683 2.19391 8.66683 3.66667Z" stroke="#373435"/>
</svg>
