<svg width="40" height="40" viewBox="0 0 40 40" fill="none" xmlns="http://www.w3.org/2000/svg">
<path d="M19.6844 10.4C21.1755 10.4 22.3844 9.19116 22.3844 7.69999C22.3844 6.20882 21.1755 5 19.6844 5C18.1932 5 16.9844 6.20882 16.9844 7.69999C16.9844 9.19116 18.1932 10.4 19.6844 10.4Z" stroke="#96989A" stroke-width="1.5" stroke-linecap="round" stroke-linejoin="round"/>
<path d="M7.30048 20.5502C8.00048 19.4002 8.95047 18.4168 10.1505 17.6835C11.4338 16.9002 12.9004 16.4668 14.4004 16.2335C16.8338 15.8835 19.2838 15.9668 21.7338 16.0668C21.8504 16.0668 21.9505 16.0835 22.0671 16.0835C22.7005 16.1668 23.2171 16.0335 23.7838 15.6502C25.4505 14.5502 27.3505 14.1502 29.3838 14.2502C29.8338 14.2668 30.1171 14.4168 30.2505 14.6501C30.4005 14.9501 30.2171 15.3168 30.1338 15.5002C29.8004 16.2002 29.4005 17.1668 28.9005 18.4835C29.1505 18.8335 29.5005 19.3001 29.9505 19.8335C30.1171 20.0335 30.7671 20.8001 31.3338 21.3168C31.8671 21.8001 32.9338 22.6335 34.7838 23.2335C34.7671 24.8335 34.7505 26.4168 34.7338 28.0168C34.3171 28.1168 33.7004 28.3168 33.0504 28.7168C31.7505 29.5335 31.5005 30.4835 30.5005 31.3501C29.9338 31.8501 28.9838 32.4335 27.4338 32.6668C27.1505 32.9835 26.7838 33.4502 26.4838 34.0668C26.1671 34.7502 26.0338 35.3502 25.9671 35.7835C24.5004 35.7835 23.0504 35.7835 21.5838 35.7835C21.4504 35.5502 21.3171 35.3002 21.1838 35.0335C21.0671 34.8002 20.9505 34.5668 20.8671 34.3335C19.1671 34.3335 17.4671 34.3335 15.7671 34.3335C15.6671 34.5168 15.5671 34.7168 15.4505 34.9335C15.3005 35.2335 15.1838 35.5335 15.0838 35.8001C13.6171 35.7835 12.1671 35.7835 10.7004 35.7668C10.6171 35.6502 10.4838 35.4668 10.3671 35.2168C10.0171 34.5168 10.0838 33.9668 9.91711 33.5335C9.66711 32.9168 9.3838 32.3002 8.95046 31.7835C7.35046 29.8502 6.03376 27.6168 6.00043 25.1335C5.98376 23.5835 6.45048 21.9502 7.30048 20.5502Z" stroke="#96989A" stroke-width="1.5" stroke-linecap="round" stroke-linejoin="round"/>
<path d="M16.9492 21.2334H22.4326" stroke="#96989A" stroke-width="1.5" stroke-linecap="round" stroke-linejoin="round"/>
<path d="M27.0346 23.4832C27.7894 23.4832 28.4013 22.8788 28.4013 22.1332C28.4013 21.3876 27.7894 20.7832 27.0346 20.7832C26.2799 20.7832 25.668 21.3876 25.668 22.1332C25.668 22.8788 26.2799 23.4832 27.0346 23.4832Z" fill="#96989A"/>
</svg>
