<svg width="16" height="13" viewBox="0 0 16 13" fill="none" xmlns="http://www.w3.org/2000/svg">
<path d="M10.8295 11.9675H12.267C13.9339 11.9675 15.1497 10.1171 15.1497 8.5572C15.1393 8.04825 15.0248 7.54682 14.813 7.08389C14.6013 6.62095 14.2969 6.20635 13.9186 5.86569C13.3226 5.35211 12.5469 5.09632 11.7623 5.15458C11.694 5.16198 11.6248 5.15576 11.5589 5.13627C11.493 5.11677 11.4316 5.0844 11.3783 5.04103C11.3249 4.99765 11.2807 4.94413 11.2482 4.88356C11.2157 4.82299 11.1955 4.75657 11.1888 4.68815C10.8753 -0.297264 3.41251 -0.228447 3.29782 4.8946C3.29598 4.99918 3.26397 5.10099 3.20564 5.18781C3.14731 5.27462 3.06515 5.34274 2.96903 5.38397C2.26227 5.73401 1.69263 6.31002 1.35048 7.02063C1.00834 7.73125 0.913275 8.53576 1.08038 9.30654C1.17598 9.78665 1.37183 10.2412 1.65511 10.6404C1.9384 11.0396 2.30275 11.3746 2.72434 11.6234C3.25282 11.9101 3.85303 12.0376 4.45242 11.9904H5.40821" stroke="#373435" stroke-linecap="round" stroke-linejoin="round"/>
<path d="M8.07666 11.9981V6.69922" stroke="#373435" stroke-linecap="round" stroke-linejoin="round"/>
<path d="M6.41748 8.22851L8.07674 6.5769L9.73599 8.22851" stroke="#373435" stroke-linecap="round" stroke-linejoin="round"/>
</svg>
